<svg xmlns="http://www.w3.org/2000/svg" width="102" height="24" viewBox="0 0 102 24" fill="none">
  <g clip-path="url(#clip0_62_38948)">
    <path d="M61.5517 10.227C60.904 9.01224 59.9817 8.03161 58.7779 7.2885C57.5776 6.54879 56.1398 6.17554 54.4614 6.17554C52.7829 6.17554 51.3011 6.55557 50.0193 7.30547C48.7376 8.05875 47.7542 9.10725 47.0591 10.4442C46.364 11.7845 46.0215 13.3453 46.0215 15.12C46.0215 16.8946 46.3809 18.4555 47.0964 19.7788C47.8119 21.1056 48.7986 22.1439 50.0566 22.8836H50.0498C51.3079 23.6233 52.7558 23.9965 54.3868 23.9965H54.38C55.7431 23.9965 56.9333 23.7522 57.9506 23.284C58.9678 22.8157 59.8291 22.1642 60.5344 21.3397C61.2397 20.5185 61.7382 19.5922 62.0332 18.5539H58.6321C58.3168 19.3648 57.8014 20.0062 57.0859 20.4812C56.3738 20.9529 55.4684 21.1904 54.38 21.1904C53.4509 21.1904 52.6066 20.963 51.8436 20.5151C51.0841 20.0672 50.4771 19.4157 50.0227 18.5573C49.6226 17.8108 49.4022 16.915 49.3513 15.8597H62.4367C62.4808 15.5645 62.5079 15.2862 62.5079 15.0148V14.2751C62.5079 12.7889 62.1892 11.4384 61.5415 10.2236L61.5517 10.227ZM49.4022 13.4946C49.4937 12.6905 49.7006 11.9982 50.0295 11.4146C50.4805 10.6138 51.0908 10.0064 51.8673 9.58908C52.6371 9.17172 53.4882 8.96813 54.4173 8.96813C55.7329 8.96813 56.835 9.37192 57.7166 10.1829C58.6016 10.9905 59.0729 12.0966 59.1441 13.4946H49.4022Z" fill="#FFFFFF"/>
    <path d="M74.535 23.6432L80.9912 6.54492H77.4749L72.5175 20.3857L67.6312 6.54492H64.0098L70.4999 23.6432H74.535Z" fill="#FFFFFF"/>
    <path d="M87.932 23.6408V10.6483C87.932 10.4685 88.0066 10.292 88.1321 10.1665C88.261 10.0375 88.4339 9.96967 88.617 9.96967H98.3115V23.6408H101.757L101.652 8.84313C101.641 7.57408 100.607 6.55273 99.3254 6.55273H89.224L87.515 8.58186L87.4268 6.55273H84.4395L84.4835 23.6442H87.9287L87.932 23.6408Z" fill="#FFFFFF"/>
    <path d="M25.7269 23.6437H29.2026V10.6512C29.2026 10.4714 29.2772 10.2949 29.4026 10.1694C29.5315 10.0404 29.7044 9.97257 29.8875 9.97257H39.5515V23.6437H43.0271L42.922 8.84603C42.9118 7.57698 41.8776 6.55563 40.5959 6.55563H36.4522L30.4674 6.54885C30.4674 6.54885 29.172 8.12668 29.1653 8.13346V0H25.7201V6.55224H25.71L25.7201 10.8209V23.6437H25.7269Z" fill="#FFFFFF"/>
    <path d="M12.5082 20.505L18.8322 14.1767V9.73505L8.71723 19.8569C8.30354 20.2709 7.74405 20.5016 7.15743 20.5016H4.29554C3.73604 20.5016 3.4546 19.823 3.85133 19.4294L18.8322 4.44168V0L0.999609 17.8414C-1.14003 19.9825 0.375689 23.6437 3.40035 23.6437H18.8288V20.505H12.5048H12.5082Z" fill="#FFFFFF"/>
  </g>
  <defs>
    <clipPath id="clip0_62_38948">
      <rect width="101.76" height="24" fill="#FFFFFF"/>
    </clipPath>
  </defs>
</svg>
